<svg width="24" height="24" viewBox="0 0 24 24" fill="none" xmlns="http://www.w3.org/2000/svg">
<g id="facebook">
<path id="Shape" d="M22.6298 0.0268555H1.37013C0.644756 0.0268555 0.0537109 0.6179 0.0537109 1.34327V22.603C0.0537109 23.3283 0.644756 23.9194 1.37013 23.9194H12.9045V14.6686H9.78804V11.0597H12.9045V8.39999C12.9045 5.31044 14.794 3.63581 17.5433 3.63581C18.8597 3.63581 19.997 3.73432 20.3283 3.77909V7.00297H18.4209C16.9254 7.00297 16.6298 7.71044 16.6298 8.7582V11.0597H20.203L19.7373 14.6686H16.6298V23.9283H22.6298C23.3552 23.9283 23.9462 23.3373 23.9462 22.6119V1.34327C23.9552 0.6179 23.3642 0.0268555 22.6298 0.0268555Z" fill="black"/>
</g>
</svg>
