<svg width="26" height="26" viewBox="0 0 26 26" fill="none" xmlns="http://www.w3.org/2000/svg">
<g id="instagram">
<path id="Shape" fill-rule="evenodd" clip-rule="evenodd" d="M3.61111 0H22.3889C24.384 0 26 1.61597 26 3.61111V22.3889C26 24.384 24.384 26 22.3889 26H3.61111C1.61597 26 0 24.384 0 22.3889V3.61111C0 1.61597 1.61597 0 3.61111 0ZM18.0556 13C18.0556 10.2104 15.7896 7.94444 13 7.94444C10.2104 7.94444 7.94444 10.2104 7.94444 13C7.94444 15.7896 10.2104 18.0556 13 18.0556C15.7896 18.0556 18.0556 15.7896 18.0556 13ZM23.1111 22.3889C23.1111 22.7861 22.7861 23.1111 22.3889 23.1111H3.61111C3.21389 23.1111 2.88889 22.7861 2.88889 22.3889V10.8333H5.35347C5.15486 11.5194 5.05556 12.2507 5.05556 13C5.05556 17.3875 8.6125 20.9444 13 20.9444C17.3875 20.9444 20.9444 17.3875 20.9444 13C20.9444 12.2507 20.8361 11.5194 20.6465 10.8333H23.1111V22.3889ZM22.3889 7.94444C22.7861 7.94444 23.1111 7.61944 23.1111 7.22222V3.61111C23.1111 3.21389 22.7861 2.88889 22.3889 2.88889H18.7778C18.3806 2.88889 18.0556 3.21389 18.0556 3.61111V7.22222C18.0556 7.61944 18.3806 7.94444 18.7778 7.94444H22.3889Z" fill="black"/>
</g>
</svg>
