<svg width="25" height="20" viewBox="0 0 25 20" fill="none" xmlns="http://www.w3.org/2000/svg">
<g id="twitter">
<path id="Shape" d="M24.9364 2.40367C24.0182 2.80725 23.0364 3.07631 22.0091 3.1929C23.0637 2.57407 23.8728 1.58752 24.2546 0.412635C23.2728 0.986626 22.1818 1.40815 21.0182 1.63237C20.0818 0.654787 18.7546 0.0449219 17.2909 0.0449219C14.4728 0.0449219 12.1909 2.29604 12.1909 5.07631C12.1909 5.47093 12.2364 5.85658 12.3273 6.22429C8.08184 6.01802 4.3273 4.00905 1.80912 0.968689C1.37275 1.71308 1.11821 2.57407 1.11821 3.49784C1.11821 5.24672 2.01821 6.78035 3.39094 7.68618C2.55457 7.65927 1.77275 7.43506 1.08184 7.05837C1.08184 7.07631 1.08184 7.10322 1.08184 7.12116C1.08184 9.56062 2.83639 11.5875 5.17275 12.0539C4.74548 12.1705 4.29094 12.2333 3.8273 12.2333C3.50003 12.2333 3.18184 12.1974 2.86366 12.1436C3.50912 14.1436 5.40003 15.5965 7.6273 15.6413C5.88184 16.9866 3.68184 17.7938 1.29094 17.7938C0.881845 17.7938 0.472754 17.7669 0.0727539 17.7221C2.3273 19.1481 5.00912 19.9821 7.89094 19.9821C17.2728 19.9821 22.4 12.314 22.4 5.66824C22.4 5.45299 22.3909 5.22878 22.3818 5.01353C23.3909 4.30501 24.2546 3.41712 24.9364 2.40367Z" fill="black"/>
</g>
</svg>
