<svg width="355" height="277" viewBox="0 0 355 277" fill="none" xmlns="http://www.w3.org/2000/svg">
<path d="M112.042 159.368C107.963 159.368 104.697 158.601 102.244 157.068C99.7907 155.504 98.564 153.127 98.564 149.938C98.564 148.251 98.8553 146.963 99.438 146.074C100.021 145.185 100.879 144.74 102.014 144.74C102.842 144.74 103.517 144.955 104.038 145.384C104.559 145.813 104.82 146.365 104.82 147.04C104.82 147.653 104.774 148.19 104.682 148.65C104.682 148.773 104.651 148.987 104.59 149.294C104.559 149.601 104.544 149.923 104.544 150.26C104.544 151.64 105.234 152.667 106.614 153.342C108.025 154.017 109.987 154.354 112.502 154.354C115.109 154.354 117.148 153.894 118.62 152.974C120.092 152.023 120.828 150.705 120.828 149.018C120.828 147.975 120.491 147.086 119.816 146.35C119.141 145.583 118.298 144.955 117.286 144.464C116.274 143.943 114.848 143.314 113.008 142.578C110.647 141.658 108.715 140.784 107.212 139.956C105.74 139.128 104.467 138.009 103.394 136.598C102.351 135.157 101.83 133.378 101.83 131.262C101.83 129.054 102.413 127.091 103.578 125.374C104.774 123.657 106.476 122.323 108.684 121.372C110.923 120.421 113.545 119.946 116.55 119.946C118.789 119.946 120.843 120.283 122.714 120.958C124.585 121.602 126.072 122.599 127.176 123.948C128.311 125.297 128.878 126.953 128.878 128.916C128.878 130.848 128.587 132.305 128.004 133.286C127.421 134.267 126.563 134.758 125.428 134.758C124.631 134.758 123.956 134.513 123.404 134.022C122.883 133.531 122.622 132.949 122.622 132.274C122.622 131.691 122.668 131.155 122.76 130.664C122.852 129.744 122.898 129.161 122.898 128.916C122.898 127.628 122.269 126.647 121.012 125.972C119.755 125.297 118.191 124.96 116.32 124.96C113.683 124.96 111.659 125.451 110.248 126.432C108.868 127.383 108.178 128.732 108.178 130.48C108.178 131.645 108.531 132.642 109.236 133.47C109.972 134.298 110.877 134.988 111.95 135.54C113.023 136.092 114.526 136.751 116.458 137.518C118.789 138.469 120.659 139.327 122.07 140.094C123.481 140.861 124.677 141.903 125.658 143.222C126.67 144.541 127.176 146.166 127.176 148.098C127.176 151.717 125.796 154.507 123.036 156.47C120.307 158.402 116.642 159.368 112.042 159.368ZM158.775 148.742C159.173 148.742 159.48 148.926 159.695 149.294C159.94 149.662 160.063 150.168 160.063 150.812C160.063 152.039 159.771 152.989 159.189 153.664C157.809 155.351 156.413 156.7 155.003 157.712C153.592 158.724 151.921 159.23 149.989 159.23C147.627 159.23 145.726 158.555 144.285 157.206C142.843 155.857 142.123 154.063 142.123 151.824C142.123 150.628 142.736 149.769 143.963 149.248C145.312 148.665 146.278 148.052 146.861 147.408C147.443 146.733 147.735 145.921 147.735 144.97C147.735 144.418 147.612 144.004 147.367 143.728C147.152 143.452 146.876 143.314 146.539 143.314C145.711 143.314 144.791 143.912 143.779 145.108C142.797 146.304 141.877 147.853 141.019 149.754C140.16 151.625 139.485 153.557 138.995 155.55C138.657 156.991 138.259 157.973 137.799 158.494C137.369 158.985 136.679 159.23 135.729 159.23C134.778 159.23 134.073 158.893 133.613 158.218C133.183 157.513 132.892 156.439 132.739 154.998C132.585 153.557 132.509 151.441 132.509 148.65C132.509 143.927 132.984 139.005 133.935 133.884C134.916 128.763 136.342 124.469 138.213 121.004C140.114 117.508 142.383 115.76 145.021 115.76C146.431 115.76 147.566 116.373 148.425 117.6C149.314 118.796 149.759 120.36 149.759 122.292C149.759 125.389 148.854 128.609 147.045 131.952C145.235 135.264 142.291 139.143 138.213 143.59C138.121 145.185 138.075 146.825 138.075 148.512C139.547 144.679 141.233 141.903 143.135 140.186C145.036 138.438 146.815 137.564 148.471 137.564C150.004 137.564 151.231 138.085 152.151 139.128C153.101 140.171 153.577 141.459 153.577 142.992C153.577 144.679 153.147 146.227 152.289 147.638C151.43 149.049 149.958 150.306 147.873 151.41C147.995 152.238 148.363 152.913 148.977 153.434C149.621 153.925 150.387 154.17 151.277 154.17C152.227 154.17 153.147 153.802 154.037 153.066C154.926 152.33 156.091 151.103 157.533 149.386C157.901 148.957 158.315 148.742 158.775 148.742ZM144.055 120.314C143.503 120.314 142.889 121.111 142.215 122.706C141.54 124.27 140.881 126.401 140.237 129.1C139.623 131.768 139.117 134.681 138.719 137.84C140.62 135.601 142.184 133.163 143.411 130.526C144.668 127.889 145.297 125.497 145.297 123.35C145.297 122.369 145.189 121.617 144.975 121.096C144.76 120.575 144.453 120.314 144.055 120.314ZM181.44 148.834C181.839 148.834 182.145 149.033 182.36 149.432C182.605 149.8 182.728 150.275 182.728 150.858C182.728 151.563 182.621 152.115 182.406 152.514C182.191 152.913 181.854 153.265 181.394 153.572L172.562 159.506C171.397 165.854 169.863 170.837 167.962 174.456C166.091 178.105 163.699 179.93 160.786 179.93C159.222 179.93 157.949 179.439 156.968 178.458C155.987 177.507 155.496 176.25 155.496 174.686C155.496 173.245 155.818 171.773 156.462 170.27C157.137 168.767 158.363 167.035 160.142 165.072C161.951 163.14 164.497 160.917 167.778 158.402L167.916 157.344C168.131 156.209 168.376 154.584 168.652 152.468C168.039 154.676 167.18 156.363 166.076 157.528C164.972 158.663 163.807 159.23 162.58 159.23C161.2 159.23 160.065 158.601 159.176 157.344C158.317 156.056 157.888 154.461 157.888 152.56C157.888 150.26 158.041 148.159 158.348 146.258C158.655 144.326 159.161 142.287 159.866 140.14C160.173 139.22 160.602 138.561 161.154 138.162C161.706 137.763 162.58 137.564 163.776 137.564C164.451 137.564 164.911 137.671 165.156 137.886C165.432 138.101 165.57 138.423 165.57 138.852C165.57 139.097 165.401 139.925 165.064 141.336C164.757 142.471 164.512 143.498 164.328 144.418C164.083 145.675 163.868 146.887 163.684 148.052C163.5 149.187 163.408 150.122 163.408 150.858C163.408 152.023 163.73 152.606 164.374 152.606C164.834 152.606 165.401 152.146 166.076 151.226C166.781 150.306 167.517 148.911 168.284 147.04C169.081 145.169 169.848 142.869 170.584 140.14C170.829 139.22 171.197 138.561 171.688 138.162C172.209 137.763 172.976 137.564 173.988 137.564C174.693 137.564 175.184 137.656 175.46 137.84C175.736 138.024 175.874 138.331 175.874 138.76C175.874 139.527 175.475 142.164 174.678 146.672L173.482 154.078C175.843 152.299 178.143 150.674 180.382 149.202C180.781 148.957 181.133 148.834 181.44 148.834ZM161.292 175.468C162.059 175.468 162.917 174.579 163.868 172.8C164.819 171.021 165.769 168.062 166.72 163.922C164.359 165.915 162.641 167.725 161.568 169.35C160.525 171.006 160.004 172.447 160.004 173.674C160.004 174.195 160.096 174.625 160.28 174.962C160.495 175.299 160.832 175.468 161.292 175.468ZM184.205 159.23C183.04 159.23 182.212 158.617 181.721 157.39C181.261 156.163 181.031 154.201 181.031 151.502C181.031 147.515 181.598 143.728 182.733 140.14C183.009 139.251 183.454 138.607 184.067 138.208C184.711 137.779 185.6 137.564 186.735 137.564C187.348 137.564 187.778 137.641 188.023 137.794C188.268 137.947 188.391 138.239 188.391 138.668C188.391 139.159 188.161 140.263 187.701 141.98C187.394 143.207 187.149 144.28 186.965 145.2C186.781 146.12 186.628 147.255 186.505 148.604C187.517 145.967 188.652 143.82 189.909 142.164C191.166 140.508 192.393 139.327 193.589 138.622C194.816 137.917 195.935 137.564 196.947 137.564C198.94 137.564 199.937 138.561 199.937 140.554C199.937 141.75 199.6 143.912 198.925 147.04C198.342 149.708 198.051 151.471 198.051 152.33C198.051 153.557 198.496 154.17 199.385 154.17C199.998 154.17 200.719 153.802 201.547 153.066C202.406 152.299 203.54 151.073 204.951 149.386C205.319 148.957 205.733 148.742 206.193 148.742C206.592 148.742 206.898 148.926 207.113 149.294C207.358 149.662 207.481 150.168 207.481 150.812C207.481 152.039 207.19 152.989 206.607 153.664C205.288 155.289 203.862 156.623 202.329 157.666C200.826 158.709 199.109 159.23 197.177 159.23C195.613 159.23 194.432 158.785 193.635 157.896C192.838 156.976 192.439 155.657 192.439 153.94C192.439 153.081 192.654 151.548 193.083 149.34C193.482 147.408 193.681 146.074 193.681 145.338C193.681 144.847 193.512 144.602 193.175 144.602C192.776 144.602 192.209 145.123 191.473 146.166C190.768 147.178 190.032 148.527 189.265 150.214C188.529 151.901 187.931 153.679 187.471 155.55C187.134 156.991 186.735 157.973 186.275 158.494C185.846 158.985 185.156 159.23 184.205 159.23ZM225.809 148.742C226.207 148.742 226.514 148.926 226.729 149.294C226.974 149.662 227.097 150.168 227.097 150.812C227.097 152.039 226.805 152.989 226.223 153.664C225.088 155.044 223.478 156.317 221.393 157.482C219.338 158.647 217.13 159.23 214.769 159.23C211.549 159.23 209.049 158.356 207.271 156.608C205.492 154.86 204.603 152.468 204.603 149.432C204.603 147.316 205.047 145.353 205.937 143.544C206.826 141.704 208.053 140.247 209.617 139.174C211.211 138.101 213.005 137.564 214.999 137.564C216.777 137.564 218.203 138.101 219.277 139.174C220.35 140.217 220.887 141.643 220.887 143.452C220.887 145.568 220.12 147.393 218.587 148.926C217.084 150.429 214.523 151.625 210.905 152.514C211.671 153.925 213.128 154.63 215.275 154.63C216.655 154.63 218.219 154.155 219.967 153.204C221.745 152.223 223.279 150.95 224.567 149.386C224.935 148.957 225.349 148.742 225.809 148.742ZM214.217 142.072C213.082 142.072 212.116 142.731 211.319 144.05C210.552 145.369 210.169 146.963 210.169 148.834V148.926C211.978 148.497 213.404 147.853 214.447 146.994C215.489 146.135 216.011 145.139 216.011 144.004C216.011 143.421 215.842 142.961 215.505 142.624C215.198 142.256 214.769 142.072 214.217 142.072ZM232.474 141.934C232.413 143.467 232.382 144.663 232.382 145.522C232.382 147.73 232.49 149.463 232.704 150.72C232.95 151.947 233.333 152.836 233.854 153.388C234.406 153.909 235.158 154.17 236.108 154.17C236.599 154.17 237.182 154.017 237.856 153.71C238.531 153.403 239.144 153.005 239.696 152.514C240.034 152.207 240.371 152.054 240.708 152.054C241.076 152.054 241.368 152.269 241.582 152.698C241.828 153.097 241.95 153.587 241.95 154.17C241.95 154.753 241.828 155.32 241.582 155.872C241.368 156.424 241.03 156.884 240.57 157.252C238.976 158.571 237.166 159.23 235.142 159.23C232.229 159.23 230.098 158.019 228.748 155.596C227.399 153.143 226.724 149.953 226.724 146.028C226.724 144.679 226.77 143.314 226.862 141.934H225.068C224.148 141.934 223.52 141.765 223.182 141.428C222.876 141.091 222.722 140.554 222.722 139.818C222.722 138.101 223.412 137.242 224.792 137.242H227.414C227.936 133.869 228.733 130.787 229.806 127.996C230.88 125.205 232.168 122.982 233.67 121.326C235.204 119.67 236.844 118.842 238.592 118.842C239.88 118.842 240.892 119.409 241.628 120.544C242.364 121.679 242.732 123.105 242.732 124.822C242.732 129.575 240.739 133.715 236.752 137.242H241.904C242.395 137.242 242.748 137.349 242.962 137.564C243.177 137.779 243.284 138.177 243.284 138.76C243.284 140.876 241.552 141.934 238.086 141.934H232.474ZM237.35 123.258C236.89 123.258 236.369 123.841 235.786 125.006C235.234 126.141 234.698 127.735 234.176 129.79C233.686 131.814 233.272 134.068 232.934 136.552C234.744 134.988 236.093 133.24 236.982 131.308C237.902 129.345 238.362 127.567 238.362 125.972C238.362 124.163 238.025 123.258 237.35 123.258Z" fill="#F8C832"/>
</svg>
